<?xml version="1.0" encoding="utf-8"?>
<!-- Generator: Adobe Illustrator 19.0.0, SVG Export Plug-In . SVG Version: 6.00 Build 0)  -->
<svg version="1.1" id="Layer_1" xmlns="http://www.w3.org/2000/svg" xmlns:xlink="http://www.w3.org/1999/xlink" x="0px" y="0px"
	 viewBox="0 0 2048 2048" style="enable-background:new 0 0 2048 2048;" xml:space="preserve">
<style type="text/css">
	.st0{fill:#D8E1ED;}
</style>
<g id="XMLID_1_">
	<path id="XMLID_296_" class="st0" d="M1858.9,731.4L1075.8,41.2c-29.6-26.1-74-26.1-103.6,0L189.1,731.4
		c-16.9,14.9-26.5,36.3-26.5,58.8V1948c0,43.2,35.1,78.3,78.3,78.3c53.6,0,1488.3,0,1566.2,0c43.2,0,78.3-35.1,78.3-78.3V790.1
		C1885.4,767.6,1875.7,746.2,1858.9,731.4z M808.7,1869.7v-533.5h430.7v533.5H808.7z M1728.8,1869.7H1396v-611.8
		c0-43.2-35.1-78.3-78.3-78.3H730.3c-43.2,0-78.3,35.1-78.3,78.3v611.8H319.2V825.5L1024,204.3l704.8,621.1V1869.7z"/>
</g>
</svg>
